<?xml version="1.0" encoding="UTF-8"?>
<svg id="Capa_2" data-name="Capa 2" xmlns="http://www.w3.org/2000/svg" viewBox="0 0 1049.08 908.99">
  <defs>
    <style>
      .cls-1 {
        fill: #19171a;
      }

      .cls-1, .cls-2, .cls-3, .cls-4, .cls-5 {
        stroke-width: 0px;
      }

      .cls-2 {
        fill: #1a171b;
      }

      .cls-3 {
        fill: #e20034;
      }

      .cls-4 {
        fill: #212222;
      }

      .cls-5 {
        fill: #fff;
      }
    </style>
  </defs>
  <g id="Capa_7" data-name="Capa 7">
    <g>
      <g>
        <path class="cls-4" d="M275.44,1.16c-2.08,2.07-.25,2.83-.25,5.77s-.03,2.94-.03,5.87.28,2.94.28,5.87-.01,2.93-.01,5.87-.11,2.93-.11,5.87.07,2.93.07,5.87-.02,2.93-.02,5.87-.05,2.93-.05,5.87-.12,2.94-.12,5.87-.02,2.94-.02,5.87.09,2.94.09,5.87-.05,2.94-.05,5.87-.05,2.94-.05,5.87.14,2.94.14,5.87.11,2.93.11,5.87-.2,2.94-.2,5.87-.02,2.94-.02,5.87.17,2.94.17,5.87-.02,2.94-.02,5.87-.15,2.94-.15,5.87.01,2.94.01,5.87-.07,2.94-.07,5.87.35,2.94.35,5.87-.04,2.94-.04,5.87,0,2.94,0,5.87-.23,2.94-.23,5.87.3,2.94.3,5.87-.28,2.94-.28,5.87-.02,2.94-.02,5.87.11,2.94.11,5.87.17,2.94.17,5.87-.02,2.94-.02,5.87-.32,2.94-.32,5.87.06,2.94.06,5.87.2,2.94.2,5.87-.26,2.94-.26,5.87.15,2.94.15,5.87.21,2.94.21,5.87-.36,2.94-.36,5.87,0,2.94,0,5.87.2,2.94.2,5.87.18,2.94.18,5.88-.37,2.94-.37,5.87-.01,2.94-.01,5.87.03,2.94.03,5.87.35,2.94.35,5.88-.34,2.94-.34,5.87.32,2.94.32,5.87.03,2.94.03,5.87-.1,2.94-.1,5.87.1,2.94.1,5.87-.01,2.94-.01,5.87-.27,2.94-.27,5.87-.03,2.94-.03,5.87.2,2.94.2,5.88-.25,2.94-.25,5.87.32,2.93.32,5.87-.06,2.93-.06,5.87.08,2.94.08,5.87-.27,2.94-.27,5.88-.04,2.94-.04,5.87.33,2.94.33,5.87-.32,2.94-.32,5.87.06,2.94.06,5.88-.12,2.94-.12,5.87.29,2.94.29,5.87-.05,2.94-.05,5.88.04,2.94.04,5.87-.2,2.94-.2,5.88.02,2.94.02,5.87.17,2.94.17,5.88-.18,2.94-.18,5.88.16,2.94.16,5.88.09,2.94.09,5.88-.24,2.94-.24,5.88.26,2.94.26,5.88-.08,2.94-.08,5.88-.07,2.94-.07,5.88-.17,2.94-.17,5.88.11,2.94.11,5.87-.11,2.94-.11,5.88.03,2.94.03,5.88.14,2.94.14,5.88-.08,2.94-.08,5.88-.05,2.94-.05,5.88-.09,2.94-.09,5.88.17,2.94.17,5.88-.07,2.94-.07,5.89.02,2.94.02,5.89.16,2.9.16,5.81.04,2.9.04,5.81.07,2.9.07,5.81-.3,2.9-.3,5.81.11,2.9.11,5.81.07,2.9.07,5.81-.06,2.9-.06,5.81-.04,2.9-.04,5.81-.1,2.9-.1,5.8.11,2.9.11,5.81.02,2.9.02,5.81.15,2.9.15,5.81-.3,2.9-.3,5.81.25,2.91.25,5.81-.11,2.9-.11,5.81.13,2.91.13,5.81-.08,2.91-.08,5.82.04,2.91.04,5.82c0,.6-.52.79-.05,1.17,2.28,1.85,2.43,1.65,4.97,3.12s2.65,1.28,5.19,2.75,2.6,1.37,5.14,2.84,2.48,1.59,5.02,3.05,2.44,1.64,4.99,3.11,2.58,1.4,5.13,2.87,2.66,1.25,5.2,2.72,2.39,1.74,4.93,3.21,2.6,1.37,5.14,2.83,2.65,1.29,5.19,2.75,2.41,1.7,4.95,3.17,2.66,1.27,5.2,2.74,2.56,1.44,5.11,2.9,2.38,1.75,4.93,3.22,2.59,1.38,5.14,2.85,2.54,1.48,5.09,2.95,2.51,1.54,5.06,3.01,2.23,2.72,5.17,2.72,2.49-1.46,5.04-2.93,2.55-1.46,5.09-2.93,2.57-1.43,5.11-2.89,2.59-1.39,5.13-2.86,2.55-1.46,5.09-2.93,2.43-1.67,4.97-3.14,2.55-1.44,5.1-2.91,2.56-1.44,5.11-2.9,2.66-1.26,5.2-2.73,2.56-1.44,5.1-2.91,2.54-1.48,5.08-2.95,2.54-1.48,5.08-2.94,2.56-1.43,5.11-2.9,2.51-1.53,5.05-3,2.48-1.58,5.02-3.05,2.63-1.32,5.18-2.79,2.57-1.43,5.12-2.91,2.82-1.12,5.1-2.98c.46-.38.1-.72.1-1.32,0-2.9-.13-2.9-.13-5.81s-.13-2.9-.13-5.81.1-2.9.1-5.81,0-2.9,0-5.81.16-2.9.16-5.81-.36-2.9-.36-5.81.32-2.9.32-5.81-.06-2.9-.06-5.81.06-2.9.06-5.8-.16-2.9-.16-5.81-.16-2.9-.16-5.81.31-2.9.31-5.81-.06-2.9-.06-5.81-.12-2.91-.12-5.81.1-2.9.1-5.81-.22-2.91-.22-5.81.14-2.91.14-5.82-.09-2.91-.09-5.82.27-2.94.27-5.87-.05-2.94-.05-5.87-.07-2.94-.07-5.87-.15-2.93-.15-5.87-.02-2.93-.02-5.87.33-2.93.33-5.87-.03-2.93-.03-5.87-.21-2.93-.21-5.87-.09-2.94-.09-5.87.21-2.94.21-5.87,0-2.94,0-5.87.01-2.94.01-5.87.05-2.94.05-5.87-.11-2.94-.11-5.87,0-2.93,0-5.87.17-2.94.17-5.87-.1-2.94-.1-5.87-.16-2.94-.16-5.87.02-2.94.02-5.87.17-2.94.17-5.87.06-2.94.06-5.87-.11-2.94-.11-5.87-.09-2.94-.09-5.87-.04-2.94-.04-5.87.25-2.94.25-5.87-.05-2.94-.05-5.87-.23-2.94-.23-5.87.2-2.94.2-5.87.08-2.94.08-5.87-.28-2.94-.28-5.87.15-2.94.15-5.87-.02-2.94-.02-5.87-.15-2.94-.15-5.87.1-2.94.1-5.87.15-2.94.15-5.87.05-2.94.05-5.87-.13-2.94-.13-5.87-.12-2.94-.12-5.87.17-2.94.17-5.87-.19-2.94-.19-5.87-.09-2.94-.09-5.87.02-2.94.02-5.88.31-2.94.31-5.87.04-2.94.04-5.87-.39-2.94-.39-5.87.06-2.94.06-5.88.33-2.94.33-5.87-.18-2.94-.18-5.87.01-2.94.01-5.87.15-2.94.15-5.87-.3-2.94-.3-5.87.1-2.94.1-5.87.04-2.94.04-5.87-.17-2.94-.17-5.87.16-2.94.16-5.88.05-2.94.05-5.87-.1-2.93-.1-5.87.05-2.93.05-5.87,0-2.94,0-5.87.01-2.94.01-5.88-.08-2.94-.08-5.87,0-2.94,0-5.87.27-2.94.27-5.87-.17-2.94-.17-5.88-.06-2.94-.06-5.87-.17-2.94-.17-5.87.34-2.94.34-5.88-.11-2.94-.11-5.87-.14-2.94-.14-5.88.12-2.94.12-5.87.2-2.94.2-5.88-.06-2.94-.06-5.88-.27-2.94-.27-5.88.17-2.94.17-5.88,0-2.94,0-5.88.02-2.94.02-5.88-.2-2.94-.2-5.88.1-2.94.1-5.88-.07-2.94-.07-5.88.09-2.94.09-5.87.2-2.94.2-5.88-.35-2.94-.35-5.88.16-2.94.16-5.88.14-2.94.14-5.88-.05-2.94-.05-5.88-.18-2.94-.18-5.88.13-2.94.13-5.88-.03-2.94-.03-5.89,2.16-3.89.07-5.96-3.03-.1-5.98-.1-2.95.35-5.91.35-2.95-.04-5.9-.04-2.95-.3-5.9-.3-2.95-.01-5.91-.01-2.95.32-5.91.32-2.95.05-5.9.05-2.95-.21-5.91-.21-2.95-.13-5.91-.13-2.95.04-5.91.04-2.95.3-5.91.3-2.95-.38-5.91-.38-2.95.3-5.91.3-2.95-.32-5.91-.32-2.95.36-5.91.36-2.95-.22-5.91-.22-2.95.06-5.91.06-2.96.17-5.91.17-2.95-.3-5.91-.3-2.95.02-5.91.02-2.96-.02-5.91-.02-2.95.27-5.91.27-2.95-.28-5.91-.28-2.96-.04-5.91-.04-2.96.01-5.91.01-2.96.22-5.91.22-2.96-.23-5.91-.23-2.95.29-5.91.29-2.96,0-5.91,0-3,.37-5.9-.23-3.73-1.87-5.83.21Z"/>
        <polygon class="cls-5" points="281.85 527.58 281.85 625.81 366.92 674.93 451.99 625.81 451.99 527.58 366.92 478.46 281.85 527.58"/>
        <polygon class="cls-1" points="773.56 579.87 773.22 580.13 762.97 653.42 758.91 682.45 773.5 580.3 773.56 579.87"/>
        <path class="cls-5" d="M660.07,662.05l70.72,9.89,22.57,3.16,3.16-22.57,9.89-70.72c-5.36-5.76-13.11-9.02-21.65-9.02h0c-7.62,0-15.32,2.64-21.69,7.45-8.85,6.68-14.22,16.84-14.34,27.18l-.1,8.41-8.12-2.21c-2.69-.73-5.52-1.1-8.4-1.1-7.61,0-15.31,2.64-21.67,7.44-14,10.57-18.34,28.94-10.37,42.1Z"/>
        <path class="cls-4" d="M773.67,580.17c-1.61-2.42-1.68-2.37-3.41-4.7s-1.82-2.27-3.55-4.6-1.56-2.46-3.3-4.79-1.82-2.26-3.56-4.59-1.67-2.38-3.4-4.71-1.94-2.18-3.67-4.51-1.53-2.48-3.26-4.81-1.73-2.34-3.46-4.67-1.75-2.32-3.49-4.65-1.81-2.28-3.54-4.61-1.63-2.41-3.36-4.74-1.76-2.31-3.49-4.64-1.82-2.27-3.56-4.6-1.53-2.48-3.26-4.81-1.93-2.19-3.66-4.52-1.83-2.26-3.57-4.59-1.54-2.48-3.28-4.81-1.89-2.21-3.63-4.55-1.57-2.46-3.3-4.79-1.92-2.2-3.65-4.53-1.54-2.48-3.27-4.81-1.67-2.38-3.41-4.71-2-2.13-3.74-4.47-1.48-2.52-3.21-4.86-1.86-2.24-3.59-4.58-1.78-2.3-3.52-4.63-1.72-2.34-3.45-4.68-1.62-2.42-3.36-4.75-1.97-2.16-3.71-4.49-1.64-2.4-3.38-4.74-1.64-2.4-3.37-4.74-1.65-2.4-3.39-4.73-1.91-2.2-3.64-4.53-1.68-2.38-3.41-4.71-1.62-2.42-3.35-4.76-1.78-2.3-3.52-4.64-1.85-2.25-3.58-4.58-1.55-2.47-3.28-4.81-2.03-2.11-3.77-4.45-1.49-2.52-3.23-4.86-1.83-2.27-3.56-4.61-3.85-1.77-3.52-4.67,2.35-1.71,4.57-3.56,2.23-1.82,4.44-3.67,2.17-1.9,4.39-3.74,2.22-1.84,4.43-3.69,2.25-1.81,4.47-3.65,2.1-1.99,4.31-3.84,2.28-1.78,4.49-3.62,2.09-1.99,4.31-3.84,2.34-1.7,4.56-3.55,2.23-1.83,4.44-3.68,2.26-1.79,4.48-3.64,2-2.12,4.22-3.97,2.24-1.82,4.44-3.7c.76-.65.72-.68,1.45-1.36,1.44-1.34,2.92-2.61,4.32-3.98s2.89-2.66,4.24-4.06,2.55-2.98,3.87-4.43,2.82-2.74,4.09-4.22,2.52-3.01,3.75-4.52,2.44-3.07,3.64-4.61,2.22-3.23,3.37-4.81,2.44-3.07,3.55-4.69,2.05-3.34,3.11-4.99,2.27-3.21,3.28-4.88,1.75-3.51,2.72-5.21,2.14-3.29,3.05-5.02,1.59-3.59,2.45-5.34,1.78-3.49,2.59-5.27,1.48-3.62,2.24-5.43,1.83-3.49,2.53-5.31,1.29-3.7,1.94-5.55.99-3.8,1.58-5.66,1.26-3.7,1.8-5.59,1.26-3.71,1.75-5.61c.47-1.87.77-3.77,1.19-5.64s.91-3.74,1.27-5.62.55-3.81.86-5.7.8-3.77,1.05-5.67.48-3.82.67-5.72.18-3.84.31-5.76.18-3.84.25-5.75.35-3.84.37-5.75-.23-3.84-.27-5.76,0-3.84-.1-5.76-.38-3.82-.54-5.73-.12-3.85-.35-5.75-.6-3.8-.88-5.69-.5-3.81-.85-5.7-.82-3.75-1.23-5.63-.99-3.71-1.46-5.57-.9-3.73-1.43-5.58-.91-3.74-1.49-5.57-1.43-3.57-2.07-5.38-1.26-3.62-1.96-5.41c-.72-1.84-1.39-3.7-2.18-5.51s-1.84-3.51-2.68-5.29-1.62-3.6-2.52-5.36-1.72-3.56-2.69-5.28-2.03-3.39-3.05-5.08-2.15-3.31-3.22-4.97-1.97-3.44-3.1-5.06-2.43-3.12-3.61-4.7-2.32-3.19-3.56-4.74-2.65-2.93-3.94-4.42-2.49-3.07-3.82-4.52-2.78-2.8-4.16-4.21-2.66-2.92-4.09-4.29-2.82-2.77-4.29-4.09-3.12-2.42-4.64-3.7-2.93-2.65-4.49-3.87-3.2-2.32-4.79-3.49-3.17-2.35-4.8-3.47-3.22-2.28-4.88-3.36-3.43-1.96-5.12-2.98c-1.7-1.03-3.26-2.3-5-3.28s-3.66-1.59-5.42-2.53-3.35-2.19-5.13-3.08-3.74-1.39-5.55-2.23-3.57-1.74-5.41-2.53-3.68-1.51-5.53-2.24-3.68-1.51-5.55-2.19-3.74-1.33-5.64-1.97-3.72-1.41-5.63-1.99-3.86-.97-5.78-1.51-3.83-1.05-5.77-1.54-3.82-1.11-5.77-1.55-3.87-.92-5.83-1.32-3.97-.4-5.94-.75-3.89-.82-5.86-1.12-3.95-.43-5.93-.69-3.93-.57-5.92-.78-3.94-.56-5.93-.73-3.98-.03-5.98-.15-3.95-.46-5.95-.54-3.98.07-5.98.03-3.97-.4-5.97-.4c-2.96,0-2.96.13-5.92.13s-2.96.18-5.92.18-2.96-.31-5.92-.31-2.96.2-5.92.2-2.96-.04-5.92-.04-2.96.11-5.92.11-2.96-.06-5.92-.06-2.96-.12-5.92-.12-2.96-.06-5.92-.06-2.96-.04-5.92-.04-2.96.12-5.92.12-2.96-.12-5.92-.12-2.96.05-5.92.05-2.96.21-5.92.21-2.96-.14-5.92-.14-2.96.25-5.92.25-2.96-.07-5.92-.07-2.96.02-5.92.02-2.96-.09-5.92-.09-2.96-.24-5.92-.24-2.96.2-5.92.2-2.96,0-5.92,0-2.96-.15-5.92-.15-2.96.13-5.92.13-2.96.05-5.92.05-2.96-.05-5.93-.05-2.96-.11-5.92-.11-2.96.04-5.93.04-2.97-.07-5.93-.07-3.72-1.85-5.84.23.05,2.82.05,5.73-.04,2.91-.04,5.83-.1,2.91-.1,5.83.14,2.91.14,5.83-.08,2.91-.08,5.83-.11,2.91-.11,5.83.2,2.91.2,5.83-.18,2.91-.18,5.83-.14,2.91-.14,5.83.05,2.91.05,5.83.2,2.91.2,5.83,0,2.91,0,5.83.07,2.91.07,5.83-.25,2.91-.25,5.83.25,2.91.25,5.83-.23,2.91-.23,5.82.23,2.91.23,5.83-.13,2.91-.13,5.83-.12,2.91-.12,5.83.2,2.92.2,5.83-.09,2.92-.09,5.83.19,2.91.19,5.83-.11,2.92-.11,5.83-.11,2.92-.11,5.84-2.01,3.75.05,5.82,2.88-.15,5.78-.15,2.9.03,5.79.03,2.9.32,5.79.32,2.9-.13,5.79-.13,2.9-.15,5.79-.15,2.9-.05,5.8-.05,2.9.34,5.79.34,2.9-.28,5.79-.28,2.9-.1,5.8-.1,2.9.05,5.8.05,2.9.12,5.79.12,2.9.19,5.8.19,2.9-.27,5.8-.27,2.9.19,5.8.19,2.9.11,5.8.11,2.9-.23,5.8-.23,2.9.11,5.8.11,2.9.07,5.8.07,2.9-.15,5.8-.15,2.9-.02,5.8-.02,2.9.11,5.8.11,2.9-.13,5.8-.13,2.9-.14,5.8-.14,2.9.08,5.8.08,2.9,0,5.8,0,2.9.11,5.79.11,2.9.08,5.8.08,2.9.09,5.8.09,2.9.02,5.8.02,2.9-.12,5.8-.12,2.9.09,5.8.09,2.9-.06,5.8-.06,2.9.07,5.8.07,2.9-.22,5.81-.22,2.9.15,5.81.15c1.2,0,2.7.3,4.43.68,1.96.12,3.89.23,5.77.6s3.76.94,5.57,1.57,3.65,1.32,5.36,2.2,3.34,1.96,4.92,3.07,3.1,2.31,4.52,3.63,2.86,2.63,4.09,4.12,2.25,3.15,3.27,4.8,1.74,3.43,2.52,5.21,1.77,3.46,2.29,5.34.9,3.77,1.17,5.71.18,3.85.18,5.81.02,3.76-.21,5.58-.78,3.66-1.26,5.43-1.15,3.54-1.86,5.24-1.54,3.37-2.48,4.97-1.95,3.16-3.09,4.62-2.38,2.84-3.7,4.15-2.73,2.49-4.22,3.62c0,0,.07.1.07.1-2.21,1.88-2.06,2.06-4.27,3.94s-2.31,1.77-4.52,3.64-2.18,1.91-4.4,3.79-2.25,1.84-4.47,3.72-2.25,1.84-4.47,3.71-2.31,1.77-4.52,3.65-2.07,2.05-4.28,3.93-2.35,1.72-4.57,3.6-2.11,2-4.33,3.88-2.25,1.84-4.46,3.72-2.11,2-4.32,3.88-2.26,1.82-4.48,3.7-2.19,1.92-4.4,3.8-2.36,1.71-4.58,3.59-2.15,1.95-4.37,3.83-2.32,1.76-4.53,3.64-2.08,2.04-4.29,3.92-2.31,1.77-4.53,3.65-2.24,1.85-4.46,3.73-2.25,1.84-4.47,3.72-1.97,2.17-4.19,4.05-2.39,1.68-4.6,3.56-2.05,2.08-4.26,3.96-2.25,1.84-4.47,3.72-2.3,1.78-4.52,3.66-2.22,1.88-4.44,3.76-2.12,1.99-4.34,3.87-2.41,1.65-4.63,3.53-2.16,1.95-4.38,3.83-2.06,2.06-4.28,3.94-2.21,1.89-4.43,3.77-2.31,1.77-4.53,3.65-2.21,1.89-4.43,3.77-2.2,1.91-4.41,3.79-2.24,1.86-4.46,3.74-2.26,1.83-4.48,3.72-2.22,1.88-4.45,3.76-4.32.86-4.56,3.76,1.85,2.38,3.73,4.62,2.08,2.08,3.95,4.32,1.69,2.4,3.56,4.65,1.9,2.22,3.77,4.47,2.11,2.05,3.98,4.29,1.82,2.29,3.69,4.54,1.65,2.43,3.52,4.68,1.98,2.15,3.86,4.4,1.93,2.2,3.81,4.44,1.69,2.4,3.56,4.64,2.16,2,4.03,4.25,1.76,2.34,3.64,4.59,1.87,2.25,3.74,4.5,1.89,2.23,3.76,4.48,1.73,2.37,3.6,4.62,1.99,2.15,3.87,4.39,1.98,2.16,3.85,4.41,1.67,2.42,3.54,4.67,1.88,2.24,3.75,4.49,2.11,2.06,3.98,4.31,1.6,2.49,3.47,4.74,2.21,1.98,4.03,4.28,1.56,2.54,3.33,4.91,1.94,2.25,3.71,4.62,1.78,2.37,3.55,4.74,1.52,2.56,3.28,4.94,1.8,2.35,3.56,4.73,1.82,2.34,3.58,4.71,1.8,2.36,3.56,4.73,1.88,2.3,3.64,4.68,1.77,2.38,3.54,4.76,1.64,2.47,3.41,4.85,1.87,2.3,3.64,4.67,1.57,2.53,3.33,4.91,1.98,2.22,3.75,4.6,1.57,2.52,3.34,4.9,2.02,2.19,3.79,4.56,1.46,2.6,3.23,4.98,1.8,2.36,3.57,4.73,1.83,2.33,3.6,4.71,1.98,2.22,3.75,4.6,1.47,2.6,3.24,4.98,2.05,2.17,3.82,4.54,1.47,2.6,3.24,4.98,2.08,2.15,3.84,4.53,1.63,2.48,3.4,4.86,1.81,2.35,3.58,4.72,1.66,2.46,3.43,4.84,1.97,2.23,3.74,4.61,1.67,2.45,3.44,4.83,1.69,2.44,3.46,4.82,1.75,2.4,3.52,4.78,1.66,2.46,3.42,4.84,2.08,2.15,3.85,4.53,1.52,2.56,3.29,4.94,1.8,2.35,3.57,4.73,1.88,2.3,3.65,4.68,1.83,2.33,3.6,4.71,1.65,2.47,3.42,4.85,1.8,2.36,3.57,4.74,1.9,2.28,3.67,4.66,1.53,2.56,3.31,4.94,1.97,2.24,3.74,4.62,1.58,2.52,3.31,4.94c.63,1.08,1.33,2.11,2.09,3.13,0,0,.08-.02.09-.02,2.83.4,2.85.22,5.68.61s2.84.35,5.67.75,2.8.6,5.63.99,2.85.25,5.68.65,2.78.71,5.61,1.11,2.85.23,5.68.63,2.85.26,5.68.65,2.8.61,5.63,1,2.84.32,5.67.72,2.85.24,5.68.63,2.84.37,5.67.77,2.84.38,5.67.78,2.8.64,5.63,1.04,2.92.29,5.82.7,2.9.41,5.8.81,2.91.34,5.81.75,2.91.35,5.82.76,3.34,2.58,5.68.82.54-2.76.94-5.66.41-2.9.82-5.8.21-2.93.61-5.83.42-2.9.83-5.81.36-2.91.77-5.82.77-2.77,1.16-5.58.24-2.84.64-5.66.21-2.84.61-5.66.56-2.79.95-5.61.39-2.82.78-5.64.24-2.84.64-5.66.41-2.82.81-5.63.43-2.81.82-5.63.42-2.82.82-5.64.41-2.82.8-5.63.44-2.81.83-5.64.47-2.81.87-5.63.31-2.83.84-5.63c.04-.21.02-.35.2-.24s-.21.23-.12.43c.06.12.33-.04.25-.17ZM756.6,652.53c-.39,2.82-.46,2.81-.85,5.63s-.29,2.84-.68,5.66-.6,2.79-1,5.62,1.58,3.96-.69,5.68-2.83-.47-5.65-.86-2.86-.14-5.68-.54-2.79-.65-5.61-1.04-2.82-.4-5.65-.8-2.95-.39-5.89-.8-2.96-.32-5.9-.73-2.93-.54-5.87-.95-2.95-.38-5.89-.79-2.96-.31-5.91-.72-2.91-.66-5.86-1.08-2.98-.17-5.93-.58-2.96-.29-5.91-.7-2.91-.65-5.86-1.06-2.98-.22-5.92-.63-2.92-.62-5.87-1.03-3.17.42-5.96-.61c-1.04-1.71-1.72-3.69-2.35-5.55s-.98-3.8-1.2-5.77-.58-3.93-.42-5.92.82-3.85,1.35-5.78,1.05-3.79,1.9-5.6,1.77-3.52,2.91-5.16,2.38-3.13,3.77-4.58,2.92-2.61,4.52-3.82c1.56-1.18,3.05-2.48,4.75-3.39s3.57-1.61,5.4-2.24,3.76-1.01,5.67-1.34,3.86-.4,5.79-.4c2.88,0,5.72.16,8.42.89,4.06,1.1,4.74,4.81,8.1,2.28s.2-4.21.25-8.41c.03-2.12.22-4.21.67-6.29s.96-4.13,1.8-6.09,2.04-3.69,3.21-5.47,2.19-3.65,3.65-5.21,3.23-2.73,4.94-4.02c1.56-1.18,3.14-2.31,4.84-3.23s3.49-1.75,5.32-2.38,3.77-.94,5.68-1.27,3.84-.48,5.77-.48v-.06c2.05,0,4.03.19,5.97.56s3.9.99,5.73,1.74,3.72,1.55,5.37,2.67,3.1,2.45,4.47,3.93c.22,2.97-.22,2.95-.63,5.9s-.6,2.92-1.01,5.87-.43,2.94-.84,5.88-.48,2.93-.9,5.88-.07,2.99-.48,5.94-.41,2.95-.82,5.89-.41,2.95-.82,5.89-.52,2.93-.93,5.88-.57,2.92-.98,5.87-.21,2.98-.62,5.92-.7,2.91-1.08,5.87-.18,2.98-.59,5.93Z"/>
        <g>
          <path class="cls-2" d="M762.97,653.42c-7.43-1.04-15.25.76-21.71,5.63-6.46,4.88-10.33,11.91-11.37,19.34l29.03,4.06,4.06-29.03Z"/>
          <path class="cls-3" d="M762.97,653.42c-1.9-.27-3.83-.37-5.75-.26s-3.79.48-5.66.97-3.72.95-5.47,1.8-3.27,1.95-4.83,3.13c-1.56,1.18-2.84,2.6-4.1,4.01s-2.71,2.8-3.67,4.43-1.59,3.51-2.22,5.32-1.06,3.54-1.33,5.43c2.63,1.29,2.83.61,5.73,1.01s2.89.46,5.79.87,2.92.27,5.82.68,2.91.37,5.81.78,3.49,2.66,5.83.9.3-2.95.7-5.86.37-2.91.77-5.81.55-2.88.95-5.79,0-2.98.71-5.83,1.41-2.9.9-5.79Z"/>
        </g>
        <g>
          <path class="cls-5" d="M711.03,626.75l-189.32-254.63,112.82-94.03c18.51-17.27,31.4-38.61,37.29-61.73,5.73-22.52,4.5-45.25-3.55-65.72-8.2-20.84-23.27-38.33-43.57-50.57-22.96-13.84-51.75-20.86-85.59-20.86h-167.3v513.76h-9.77V69.43h177.07c35.64,0,66.13,7.49,90.63,22.26,22.15,13.36,38.62,32.5,47.61,55.36,8.81,22.4,10.17,47.2,3.93,71.71-6.36,24.98-20.26,47.99-40.19,66.56l-.2.18-105.82,88.2,183.8,247.21-7.84,5.83Z"/>
          <path class="cls-5" d="M711.06,626.61c-2.85-.69-1.64-2.32-3.4-4.68s-1.81-2.32-3.56-4.67-1.76-2.35-3.51-4.71-1.87-2.27-3.62-4.62-1.69-2.4-3.44-4.76-1.78-2.33-3.53-4.69-1.86-2.27-3.62-4.63-1.72-2.38-3.47-4.74-1.59-2.48-3.34-4.83-1.74-2.37-3.49-4.72-1.79-2.33-3.54-4.69-1.85-2.28-3.6-4.64-1.72-2.38-3.47-4.74-1.59-2.48-3.34-4.84-1.88-2.26-3.63-4.62-1.7-2.4-3.45-4.75-1.71-2.38-3.47-4.74-1.84-2.29-3.59-4.65-1.78-2.34-3.53-4.69-1.71-2.39-3.47-4.74-1.94-2.21-3.7-4.57-1.53-2.52-3.28-4.88-1.67-2.42-3.42-4.77-1.98-2.19-3.73-4.54-1.58-2.49-3.33-4.85-1.74-2.36-3.5-4.72-1.72-2.38-3.47-4.74-1.76-2.35-3.52-4.71-1.82-2.31-3.57-4.67-1.99-2.18-3.74-4.54-1.53-2.53-3.28-4.88-1.9-2.25-3.66-4.6-1.51-2.53-3.27-4.89-2.06-2.13-3.82-4.49-1.64-2.44-3.39-4.8-1.87-2.27-3.62-4.63-1.73-2.37-3.48-4.73-1.63-2.45-3.38-4.81-1.68-2.41-3.43-4.77-1.84-2.29-3.6-4.65-1.7-2.4-3.45-4.76-1.92-2.24-3.67-4.59-1.51-2.54-3.26-4.89-1.72-2.38-3.48-4.74-1.92-2.23-3.68-4.59-1.75-2.36-3.51-4.72-1.8-2.32-3.56-4.68-1.76-2.35-3.51-4.71-1.63-2.45-3.38-4.81-1.89-2.25-3.65-4.61-1.7-2.4-3.45-4.76-1.65-2.44-3.41-4.8-1.9-2.26-3.65-4.62-3.7-1.85-3.36-4.77,2.27-1.77,4.53-3.65,2.14-2.02,4.4-3.9,2.26-1.88,4.51-3.76,2.15-2.01,4.4-3.89,2.41-1.7,4.66-3.58,2.17-1.99,4.42-3.87,2.39-1.72,4.64-3.6,2.25-1.88,4.51-3.76,2.23-1.91,4.49-3.79,2.32-1.8,4.58-3.68,2.09-2.07,4.35-3.96,2.23-1.91,4.49-3.79,2.43-1.67,4.69-3.55,2.08-2.09,4.34-3.97,2.21-1.93,4.47-3.81,2.32-1.8,4.58-3.68,2.2-1.94,4.46-3.83,2.33-1.79,4.59-3.68,2.17-1.99,4.43-3.87,2.39-1.72,4.65-3.6,2.27-1.86,4.53-3.74,2.16-1.99,4.42-3.87,2.24-1.9,4.5-3.79,2.22-1.93,4.48-3.82,2.29-1.84,4.53-3.76c1.49-1.39,3.12-2.62,4.54-4.06s2.63-3.11,3.98-4.62,2.68-3.06,3.96-4.62,2.56-3.15,3.77-4.77,2.58-3.15,3.71-4.83,2.15-3.45,3.21-5.18,1.96-3.56,2.93-5.34,2-3.54,2.89-5.36,1.76-3.66,2.55-5.53,1.7-3.7,2.4-5.61,1.37-3.83,1.97-5.77,1.07-3.92,1.58-5.89c.5-1.98.91-3.97,1.31-5.94s.78-3.99,1.08-5.99.45-4.04.63-6.05.35-4.05.42-6.07-.15-4.06-.19-6.08.19-4.07.03-6.09-.55-4.03-.83-6.03-.62-4.01-1.02-5.99-.86-3.96-1.37-5.92-.84-3.98-1.47-5.91-1.5-3.77-2.25-5.66c-.69-1.76-1.48-3.47-2.27-5.18s-1.47-3.49-2.36-5.15-1.96-3.23-2.94-4.85-1.99-3.21-3.06-4.76-2.17-3.08-3.33-4.58-2.46-2.86-3.7-4.28-2.51-2.8-3.83-4.16-2.58-2.75-3.97-4.03-2.72-2.62-4.18-3.83-3.09-2.17-4.61-3.3-2.9-2.42-4.48-3.48-3.21-1.97-4.84-2.95c-1.69-1.02-3.42-1.98-5.17-2.92s-3.47-1.9-5.26-2.76-3.61-1.61-5.44-2.39-3.66-1.49-5.52-2.19-3.66-1.49-5.56-2.11-3.81-1.05-5.73-1.59-3.78-1.15-5.72-1.63-3.85-.89-5.8-1.3-3.85-.87-5.82-1.21-3.89-.67-5.87-.95-3.92-.48-5.91-.7-3.95-.18-5.94-.34-3.92-.55-5.92-.66-3.96.11-5.96.06-3.94-.25-5.94-.25c-2.88,0-2.88-.14-5.76-.14s-2.88.04-5.76.04-2.88.02-5.77.02-2.88-.06-5.77-.06-2.88.33-5.76.33-2.88-.23-5.77-.23-2.88-.02-5.77-.02-2.88.25-5.77.25-2.88-.09-5.77-.09-2.88-.2-5.77-.2-2.88.15-5.77.15-2.88.07-5.77.07-2.88.13-5.77.13-2.88-.19-5.77-.19-2.88-.2-5.77-.2-2.89.26-5.77.26-2.88-.27-5.77-.27-2.88.09-5.77.09-2.89.13-5.77.13-2.88-.16-5.77-.16-2.88.05-5.77.05-2.89.06-5.77.06-2.89,0-5.77,0-2.89.13-5.77.13-2.89.02-5.77.02-2.88-.02-5.77-.02-2.89-.28-5.77-.28-2.89.03-5.78.03-3.84-1.99-5.87.06.07,3.01.07,5.93-.11,2.92-.11,5.84.29,2.92.29,5.83-.28,2.92-.28,5.83.08,2.92.08,5.83.06,2.92.06,5.83.08,2.92.08,5.83-.22,2.92-.22,5.84.15,2.92.15,5.84,0,2.92,0,5.84.04,2.92.04,5.84-.11,2.92-.11,5.84.05,2.92.05,5.83-.03,2.92-.03,5.83-.06,2.92-.06,5.83.2,2.92.2,5.84.05,2.92.05,5.84-.19,2.92-.19,5.84.21,2.92.21,5.84-.33,2.92-.33,5.84.33,2.92.33,5.84-.26,2.92-.26,5.84.15,2.92.15,5.84-.09,2.92-.09,5.84.07,2.92.07,5.84-.11,2.92-.11,5.84.23,2.92.23,5.84-.34,2.92-.34,5.84,0,2.92,0,5.84.25,2.92.25,5.84.12,2.92.12,5.84-.12,2.92-.12,5.84-.01,2.92-.01,5.84.05,2.92.05,5.84-.02,2.92-.02,5.84-.07,2.92-.07,5.84.18,2.92.18,5.84-.13,2.92-.13,5.84-.23,2.92-.23,5.84.06,2.92.06,5.84.23,2.92.23,5.84-.15,2.92-.15,5.84.11,2.92.11,5.84-.19,2.92-.19,5.84-.1,2.92-.1,5.84.12,2.92.12,5.84.24,2.92.24,5.84-.16,2.92-.16,5.84.15,2.92.15,5.84.05,2.92.05,5.84-.18,2.92-.18,5.84-.12,2.92-.12,5.84.23,2.92.23,5.84-.33,2.92-.33,5.84.28,2.92.28,5.84.05,2.92.05,5.83.02,2.92.02,5.83-.21,2.92-.21,5.84.05,2.92.05,5.84.2,2.92.2,5.84-.2,2.92-.2,5.84.03,2.92.03,5.84-.18,2.92-.18,5.84.14,2.92.14,5.84.05,2.92.05,5.84.09,2.92.09,5.84.01,2.92.01,5.84-.19,2.92-.19,5.84.11,2.92.11,5.84-.06,2.92-.06,5.84-.01,2.92-.01,5.84.15,2.92.15,5.84.01,2.92.01,5.84-.13,2.92-.13,5.84-.02,2.92-.02,5.84-.15,2.92-.15,5.84.27,2.92.27,5.84-.15,2.92-.15,5.84.16,2.92.16,5.84-.03,2.92-.03,5.84-.13,2.92-.13,5.84-.18,2.92-.18,5.84.28,2.92.28,5.84-.14,2.92-.14,5.84-.13,2.92-.13,5.84,0,2.92,0,5.85.05,2.93.05,5.85,1.95,3.54.07,5.79c-1.57,1.87-2.37.14-4.81.14s-3.38,1.85-4.94-.03c-1.88-2.26,0-2.99,0-5.93s0-2.94,0-5.88.21-2.94.21-5.88-.33-2.94-.33-5.88,0-2.94,0-5.88.14-2.94.14-5.88.1-2.94.1-5.88-.11-2.94-.11-5.88,0-2.94,0-5.88.16-2.94.16-5.88-.22-2.94-.22-5.88.1-2.94.1-5.88.19-2.94.19-5.88-.25-2.94-.25-5.88-.05-2.94-.05-5.88.07-2.94.07-5.88-.12-2.94-.12-5.88.2-2.94.2-5.88.19-2.94.19-5.88-.01-2.94-.01-5.88-.25-2.94-.25-5.88.15-2.94.15-5.88.11-2.94.11-5.88-.4-2.94-.4-5.88.35-2.94.35-5.88-.26-2.94-.26-5.88.14-2.94.14-5.88.1-2.94.1-5.88-.25-2.94-.25-5.88.14-2.94.14-5.88-.17-2.94-.17-5.88.03-2.94.03-5.88.21-2.94.21-5.88-.21-2.94-.21-5.88.29-2.94.29-5.88-.34-2.94-.34-5.88.33-2.94.33-5.88-.09-2.94-.09-5.88-.11-2.94-.11-5.88-.14-2.94-.14-5.88.26-2.94.26-5.88-.05-2.94-.05-5.88-.17-2.94-.17-5.88.26-2.94.26-5.88-.12-2.94-.12-5.88-.05-2.94-.05-5.88.16-2.94.16-5.88-.27-2.94-.27-5.88.04-2.94.04-5.88.25-2.94.25-5.88-.18-2.94-.18-5.88-.16-2.94-.16-5.88.01-2.94.01-5.88.13-2.94.13-5.88.14-2.94.14-5.88-.19-2.94-.19-5.88.16-2.94.16-5.88-.07-2.94-.07-5.88-.15-2.94-.15-5.88.26-2.94.26-5.88-.2-2.94-.2-5.88.23-2.94.23-5.88-.18-2.94-.18-5.88.1-2.94.1-5.88-.16-2.94-.16-5.88.08-2.94.08-5.88.15-2.94.15-5.88,0-2.94,0-5.88,0-2.94,0-5.88-.2-2.94-.2-5.88.22-2.94.22-5.88-.18-2.94-.18-5.88.03-2.94.03-5.89,0-2.94,0-5.88.19-2.94.19-5.89-.19-2.94-.19-5.89.11-2.94.11-5.89-.04-2.94-.04-5.89-.25-2.94-.25-5.89.16-2.94.16-5.88.14-2.94.14-5.88-.18-2.94-.18-5.89.08-2.94.08-5.89.2-2.94.2-5.89-.24-2.94-.24-5.89,0-2.94,0-5.89.04-2.95.04-5.89.04-2.95.04-5.89-2.12-3.81-.04-5.89,2.95.16,5.9.16,2.95-.03,5.9-.03,2.95-.26,5.9-.26,2.95.22,5.9.22,2.95-.04,5.9-.04,2.95-.13,5.9-.13,2.95.05,5.9.05,2.95.07,5.9.07,2.95-.16,5.9-.16,2.95.13,5.9.13,2.95,0,5.9,0,2.95.09,5.9.09,2.95.08,5.9.08,2.95-.19,5.9-.19,2.95-.17,5.9-.17,2.95.03,5.9.03,2.95-.03,5.9-.03,2.95.09,5.9.09,2.95.08,5.9.08,2.95.11,5.9.11,2.95-.23,5.9-.23,2.95.14,5.9.14,2.95,0,5.9,0,2.95.04,5.9.04,2.95.12,5.9.12,2.95-.16,5.91-.16,2.95-.04,5.9-.04,2.95.03,5.91.03,2.96-.13,5.91-.13,2.96.27,5.91.27c1.99,0,3.95-.01,5.91.03s3.95.12,5.9.21,3.95.13,5.9.28,3.96.13,5.9.33,3.89.75,5.83,1.01,3.95.31,5.88.62,3.91.62,5.83.99,3.81,1.09,5.71,1.53,3.9.7,5.79,1.2,3.85.94,5.72,1.51,3.75,1.26,5.6,1.9,3.7,1.38,5.52,2.09,3.59,1.65,5.38,2.43,3.62,1.56,5.38,2.42,3.58,1.65,5.31,2.59,3.42,1.97,5.09,2.98c1.64.99,3.25,2.01,4.83,3.07s3.14,2.17,4.67,3.3,3.05,2.3,4.52,3.5,2.81,2.58,4.23,3.85,3.08,2.3,4.43,3.64,2.56,2.84,3.84,4.25,2.37,2.99,3.58,4.46,2.57,2.83,3.71,4.36,2.23,3.1,3.28,4.69,2.17,3.15,3.14,4.79,1.93,3.3,2.81,4.99,1.5,3.51,2.29,5.25,1.42,3.53,2.11,5.31c.74,1.89,1.76,3.68,2.4,5.6s.96,3.95,1.49,5.91,1.07,3.91,1.5,5.89.67,3.99.99,6,.63,4,.84,6.02.41,4.03.51,6.06.37,4.04.37,6.08-.23,4.05-.34,6.08-.14,4.05-.35,6.08-.54,4.02-.85,6.03-.77,3.97-1.18,5.97-.89,3.94-1.4,5.92c-.5,1.96-.79,3.98-1.39,5.91s-1.47,3.77-2.15,5.67-1.37,3.8-2.14,5.67-1.56,3.72-2.41,5.56-1.67,3.68-2.61,5.47-1.85,3.6-2.86,5.35-2.23,3.37-3.32,5.08-2.29,3.31-3.46,4.97-2.05,3.51-3.28,5.11-2.7,3.01-4,4.57-2.47,3.2-3.83,4.7-2.93,2.79-4.35,4.23-2.89,2.8-4.38,4.19c-.1.09.05.26-.05.35-2.2,1.84-2.29,1.73-4.49,3.57s-2.28,1.74-4.49,3.58-1.97,2.12-4.17,3.96-2.37,1.64-4.57,3.48-2.1,1.96-4.31,3.79-2.28,1.75-4.48,3.58-2.31,1.71-4.51,3.55-2.07,1.99-4.28,3.83-2.21,1.83-4.41,3.67-2.14,1.91-4.35,3.75-2.31,1.71-4.52,3.54-2.13,1.93-4.33,3.77-2.29,1.73-4.49,3.57-2.16,1.89-4.37,3.73-2.08,1.98-4.28,3.82-2.34,1.68-4.54,3.52-2.26,1.78-4.46,3.62-2.22,1.82-4.42,3.66-2.17,1.88-4.38,3.72-2.13,1.92-4.34,3.76-2.32,1.7-4.52,3.54-2.23,1.81-4.44,3.65-2.13,1.93-4.34,3.77-4,.87-4.32,3.73,1.64,2.35,3.37,4.68,1.79,2.29,3.53,4.62,1.82,2.27,3.55,4.6,1.6,2.43,3.33,4.76,1.66,2.39,3.39,4.72,1.88,2.22,3.61,4.56,1.63,2.41,3.37,4.74,1.91,2.2,3.65,4.53,1.58,2.44,3.32,4.77,1.75,2.32,3.48,4.65,1.79,2.29,3.52,4.62,1.79,2.28,3.53,4.61,1.49,2.51,3.23,4.84,1.89,2.22,3.62,4.55,1.65,2.39,3.39,4.72,1.81,2.27,3.54,4.6,1.65,2.39,3.38,4.72,1.78,2.3,3.51,4.63,1.71,2.35,3.44,4.68,1.62,2.42,3.35,4.75,1.94,2.17,3.68,4.5,1.81,2.28,3.54,4.61,1.49,2.51,3.22,4.84,1.8,2.28,3.54,4.62,1.65,2.4,3.38,4.73,1.92,2.19,3.65,4.52,1.53,2.49,3.26,4.82,1.94,2.18,3.68,4.51,1.71,2.35,3.44,4.68,1.85,2.24,3.59,4.58,1.49,2.51,3.23,4.85,1.89,2.22,3.62,4.55,1.79,2.29,3.53,4.62,1.61,2.42,3.35,4.75,1.61,2.43,3.34,4.76,1.73,2.33,3.47,4.67,1.98,2.15,3.72,4.48,1.51,2.5,3.25,4.83,1.85,2.25,3.59,4.58,1.73,2.34,3.46,4.67,1.8,2.29,3.53,4.62,1.69,2.36,3.42,4.7,1.7,2.36,3.44,4.69,1.76,2.31,3.5,4.64,1.84,2.25,3.58,4.58,1.46,2.54,3.19,4.87,1.84,2.26,3.58,4.59,1.68,2.38,3.41,4.71,1.69,2.37,3.42,4.7,1.96,2.17,3.7,4.5,1.75,2.32,3.49,4.66,1.7,2.36,3.44,4.7,3.5,1.81,3.33,4.72c-.14,2.44-2.33,1.01-3.93,2.85-1.69,1.95-1.43,3.42-3.81,2.84Z"/>
        </g>
        <path class="cls-3" d="M405.62,576.69c0,2.05-.38,4.06-.69,6.02s-.84,3.96-1.46,5.86-1.28,3.84-2.19,5.63-1.96,3.55-3.14,5.18-2.58,3.11-4,4.54-2.88,2.84-4.52,4.03-3.34,2.28-5.15,3.21-3.71,1.56-5.65,2.19-3.85,1.2-5.86,1.51-3.99.47-6.05.47-4.07-.23-6.04-.54-4.02-.69-5.92-1.31-3.72-1.6-5.51-2.51-3.58-1.88-5.21-3.07-3.12-2.57-4.54-3.99-2.94-2.81-4.13-4.44-2.03-3.49-2.96-5.3-1.68-3.65-2.31-5.58-1.11-3.85-1.43-5.87-.56-3.97-.56-6.03.29-4.06.59-6.02.76-3.98,1.38-5.88,1.31-3.85,2.22-5.63,2.19-3.39,3.38-5.02,2.31-3.32,3.74-4.75,2.9-2.85,4.53-4.04,3.48-2.05,5.29-2.97,3.58-1.87,5.52-2.5,3.92-.89,5.94-1.21,3.97-.7,6.02-.7,4.05.41,6.02.72,3.95.86,5.85,1.48,3.93,1.1,5.72,2.01,3.36,2.26,4.99,3.44,3.26,2.38,4.69,3.81,2.79,2.93,3.98,4.57,2.23,3.37,3.15,5.17,1.56,3.7,2.19,5.64,1.38,3.8,1.7,5.82.43,4.01.43,6.06Z"/>
      </g>
      <g>
        <path class="cls-4" d="M34.56,908.66l-8.3-12.53c-1.17.07-2.07.11-2.69.11h-10.55v12.42h-3.79v-38.42h14.35c4.8,0,8.51,1.11,11.13,3.33,2.62,2.22,3.93,5.36,3.93,9.43,0,3.19-.77,5.84-2.31,7.97-1.54,2.12-3.74,3.61-6.59,4.45l9.23,13.25h-4.4ZM23.57,892.83c3.66,0,6.48-.83,8.46-2.5,1.98-1.67,2.97-4.08,2.97-7.23s-.99-5.42-2.97-7.04c-1.98-1.61-4.8-2.42-8.46-2.42h-10.55v19.18h10.55Z"/>
        <path class="cls-4" d="M48.96,870.24h25.72v3.41h-21.93v13.74h19.62v3.41h-19.62v14.46h22.64v3.41h-26.44v-38.42Z"/>
        <path class="cls-4" d="M110.16,872.77c3.02,1.69,5.4,4,7.15,6.95,1.74,2.95,2.61,6.2,2.61,9.76s-.87,6.8-2.61,9.73c-1.74,2.93-4.13,5.24-7.17,6.92-3.04,1.69-6.41,2.53-10.11,2.53h-15.33v-38.42h15.44c3.66,0,7.01.84,10.03,2.53ZM108.21,903.16c2.42-1.39,4.33-3.29,5.74-5.69,1.41-2.4,2.12-5.07,2.12-8s-.71-5.61-2.14-8.02c-1.43-2.42-3.36-4.32-5.8-5.72-2.44-1.39-5.12-2.09-8.05-2.09h-11.6v31.6h11.76c2.89,0,5.55-.7,7.97-2.09Z"/>
        <path class="cls-4" d="M156.03,908.66l-4.56-10.22h-21.33l-4.51,10.22h-4.07l17.31-38.42h3.96l17.31,38.42h-4.12ZM131.62,895.02h18.36l-9.23-20.78-9.12,20.78Z"/>
        <path class="cls-4" d="M188.12,874.52c-2.02-.84-4.1-1.26-6.27-1.26-2.97,0-5.69.71-8.16,2.14-2.47,1.43-4.43,3.38-5.88,5.85-1.45,2.47-2.17,5.18-2.17,8.11s.72,5.62,2.17,8.08c1.45,2.45,3.41,4.41,5.88,5.85,2.47,1.45,5.19,2.17,8.16,2.17,2.12,0,4.2-.41,6.21-1.24,2.01-.82,3.81-1.97,5.39-3.43l2.31,2.47c-1.91,1.76-4.09,3.15-6.54,4.18-2.46,1.03-4.97,1.54-7.53,1.54-3.63,0-6.96-.88-10-2.64s-5.45-4.14-7.23-7.14c-1.78-3-2.67-6.28-2.67-9.84s.9-6.82,2.69-9.78c1.79-2.97,4.22-5.32,7.28-7.06,3.06-1.74,6.4-2.61,10.03-2.61,2.6,0,5.11.49,7.53,1.46s4.54,2.32,6.38,4.04l-2.25,2.64c-1.54-1.5-3.32-2.67-5.33-3.52Z"/>
        <path class="cls-4" d="M225.66,874.52c-2.02-.84-4.1-1.26-6.27-1.26-2.97,0-5.69.71-8.16,2.14-2.47,1.43-4.43,3.38-5.88,5.85-1.45,2.47-2.17,5.18-2.17,8.11s.72,5.62,2.17,8.08c1.45,2.45,3.41,4.41,5.88,5.85,2.47,1.45,5.19,2.17,8.16,2.17,2.12,0,4.2-.41,6.21-1.24,2.01-.82,3.81-1.97,5.39-3.43l2.31,2.47c-1.91,1.76-4.09,3.15-6.54,4.18-2.46,1.03-4.97,1.54-7.53,1.54-3.63,0-6.96-.88-10-2.64-3.04-1.76-5.45-4.14-7.23-7.14-1.78-3-2.66-6.28-2.66-9.84s.9-6.82,2.69-9.78c1.79-2.97,4.22-5.32,7.28-7.06,3.06-1.74,6.4-2.61,10.03-2.61,2.6,0,5.11.49,7.53,1.46,2.42.97,4.54,2.32,6.37,4.04l-2.25,2.64c-1.54-1.5-3.32-2.67-5.33-3.52Z"/>
        <path class="cls-4" d="M241.6,870.24h3.79v38.42h-3.79v-38.42Z"/>
        <path class="cls-4" d="M283.89,872.52c3.06,1.74,5.49,4.09,7.28,7.06,1.79,2.97,2.69,6.23,2.69,9.78s-.9,6.83-2.69,9.84c-1.79,3-4.22,5.39-7.28,7.14-3.06,1.76-6.42,2.64-10.09,2.64s-7.03-.88-10.09-2.64c-3.06-1.76-5.49-4.14-7.28-7.14-1.8-3-2.69-6.28-2.69-9.84s.9-6.82,2.69-9.78c1.79-2.97,4.22-5.32,7.28-7.06,3.06-1.74,6.42-2.61,10.09-2.61s7.03.87,10.09,2.61ZM265.73,875.46c-2.49,1.43-4.47,3.37-5.94,5.83-1.47,2.46-2.2,5.15-2.2,8.08s.73,5.64,2.2,8.13c1.46,2.49,3.44,4.46,5.94,5.91,2.49,1.45,5.2,2.17,8.13,2.17s5.58-.72,8.05-2.17c2.47-1.45,4.44-3.42,5.91-5.91,1.47-2.49,2.2-5.2,2.2-8.13s-.73-5.62-2.2-8.08c-1.47-2.45-3.43-4.4-5.91-5.83-2.47-1.43-5.16-2.14-8.05-2.14s-5.64.71-8.13,2.14ZM277.87,859.35l3.79,1.65-6.93,5.5-3.3-.38,6.43-6.76Z"/>
        <path class="cls-4" d="M330.09,870.24h3.74v38.42h-4.01l-23.8-32.54v32.54h-3.79v-38.42h4.01l23.85,32.54v-32.54Z"/>
        <path class="cls-4" d="M391.31,870.24h25.72v3.41h-21.93v13.74h19.62v3.41h-19.62v14.46h22.64v3.41h-26.44v-38.42Z"/>
        <path class="cls-4" d="M452.51,872.77c3.02,1.69,5.4,4,7.14,6.95,1.74,2.95,2.61,6.2,2.61,9.76s-.87,6.8-2.61,9.73c-1.74,2.93-4.13,5.24-7.17,6.92-3.04,1.69-6.41,2.53-10.11,2.53h-15.33v-38.42h15.44c3.66,0,7.01.84,10.03,2.53ZM450.56,903.16c2.42-1.39,4.33-3.29,5.74-5.69,1.41-2.4,2.12-5.07,2.12-8s-.71-5.61-2.14-8.02c-1.43-2.42-3.36-4.32-5.8-5.72-2.44-1.39-5.12-2.09-8.05-2.09h-11.6v31.6h11.76c2.89,0,5.55-.7,7.97-2.09Z"/>
        <path class="cls-4" d="M470.62,870.24h3.79v38.42h-3.79v-38.42Z"/>
        <path class="cls-4" d="M509.09,874.52c-2.02-.84-4.1-1.26-6.27-1.26-2.97,0-5.69.71-8.16,2.14-2.47,1.43-4.43,3.38-5.88,5.85-1.45,2.47-2.17,5.18-2.17,8.11s.72,5.62,2.17,8.08c1.45,2.45,3.41,4.41,5.88,5.85,2.47,1.45,5.19,2.17,8.16,2.17,2.12,0,4.2-.41,6.21-1.24,2.01-.82,3.81-1.97,5.39-3.43l2.31,2.47c-1.91,1.76-4.09,3.15-6.54,4.18-2.46,1.03-4.96,1.54-7.53,1.54-3.63,0-6.96-.88-10-2.64-3.04-1.76-5.45-4.14-7.23-7.14-1.78-3-2.66-6.28-2.66-9.84s.9-6.82,2.69-9.78c1.79-2.97,4.22-5.32,7.28-7.06,3.06-1.74,6.4-2.61,10.03-2.61,2.6,0,5.11.49,7.53,1.46,2.42.97,4.54,2.32,6.37,4.04l-2.25,2.64c-1.54-1.5-3.32-2.67-5.33-3.52Z"/>
        <path class="cls-4" d="M525.03,870.24h3.79v38.42h-3.79v-38.42Z"/>
        <path class="cls-4" d="M567.32,872.52c3.06,1.74,5.49,4.09,7.28,7.06,1.79,2.97,2.69,6.23,2.69,9.78s-.9,6.83-2.69,9.84c-1.8,3-4.22,5.39-7.28,7.14-3.06,1.76-6.42,2.64-10.09,2.64s-7.03-.88-10.08-2.64c-3.06-1.76-5.49-4.14-7.28-7.14-1.8-3-2.69-6.28-2.69-9.84s.9-6.82,2.69-9.78c1.79-2.97,4.22-5.32,7.28-7.06,3.06-1.74,6.42-2.61,10.08-2.61s7.03.87,10.09,2.61ZM549.16,875.46c-2.49,1.43-4.47,3.37-5.94,5.83-1.47,2.46-2.2,5.15-2.2,8.08s.73,5.64,2.2,8.13c1.46,2.49,3.44,4.46,5.94,5.91,2.49,1.45,5.2,2.17,8.13,2.17s5.58-.72,8.05-2.17c2.47-1.45,4.44-3.42,5.91-5.91,1.46-2.49,2.2-5.2,2.2-8.13s-.73-5.62-2.2-8.08c-1.47-2.45-3.44-4.4-5.91-5.83-2.47-1.43-5.16-2.14-8.05-2.14s-5.64.71-8.13,2.14ZM561.3,859.35l3.79,1.65-6.92,5.5-3.3-.38,6.43-6.76Z"/>
        <path class="cls-4" d="M613.52,870.24h3.74v38.42h-4.01l-23.8-32.54v32.54h-3.79v-38.42h4.01l23.85,32.54v-32.54Z"/>
        <path class="cls-4" d="M697.33,874.52c-2.02-.84-4.1-1.26-6.27-1.26-2.97,0-5.69.71-8.16,2.14-2.47,1.43-4.43,3.38-5.88,5.85-1.45,2.47-2.17,5.18-2.17,8.11s.72,5.62,2.17,8.08c1.45,2.45,3.41,4.41,5.88,5.85,2.47,1.45,5.19,2.17,8.16,2.17,2.12,0,4.2-.41,6.21-1.24,2.01-.82,3.81-1.97,5.39-3.43l2.31,2.47c-1.91,1.76-4.09,3.15-6.54,4.18-2.46,1.03-4.97,1.54-7.53,1.54-3.63,0-6.96-.88-10-2.64-3.04-1.76-5.45-4.14-7.23-7.14-1.78-3-2.67-6.28-2.67-9.84s.9-6.82,2.69-9.78c1.79-2.97,4.22-5.32,7.28-7.06,3.06-1.74,6.4-2.61,10.03-2.61,2.6,0,5.11.49,7.53,1.46,2.42.97,4.54,2.32,6.38,4.04l-2.25,2.64c-1.54-1.5-3.32-2.67-5.33-3.52Z"/>
        <path class="cls-4" d="M738.69,872.52c3.06,1.74,5.49,4.09,7.28,7.06,1.79,2.97,2.69,6.23,2.69,9.78s-.9,6.83-2.69,9.84c-1.8,3-4.22,5.39-7.28,7.14-3.06,1.76-6.42,2.64-10.09,2.64s-7.03-.88-10.08-2.64c-3.06-1.76-5.49-4.14-7.28-7.14-1.8-3-2.69-6.28-2.69-9.84s.9-6.82,2.69-9.78c1.79-2.97,4.22-5.32,7.28-7.06,3.06-1.74,6.42-2.61,10.08-2.61s7.03.87,10.09,2.61ZM720.53,875.46c-2.49,1.43-4.47,3.37-5.94,5.83-1.47,2.46-2.2,5.15-2.2,8.08s.73,5.64,2.2,8.13c1.46,2.49,3.44,4.46,5.94,5.91,2.49,1.45,5.2,2.17,8.13,2.17s5.58-.72,8.05-2.17c2.47-1.45,4.44-3.42,5.91-5.91,1.46-2.49,2.2-5.2,2.2-8.13s-.73-5.62-2.2-8.08c-1.47-2.45-3.44-4.4-5.91-5.83-2.47-1.43-5.16-2.14-8.05-2.14s-5.64.71-8.13,2.14Z"/>
        <path class="cls-4" d="M782.36,908.66l-8.3-12.53c-1.17.07-2.07.11-2.69.11h-10.55v12.42h-3.79v-38.42h14.34c4.8,0,8.51,1.11,11.13,3.33,2.62,2.22,3.93,5.36,3.93,9.43,0,3.19-.77,5.84-2.31,7.97-1.54,2.12-3.74,3.61-6.6,4.45l9.23,13.25h-4.4ZM771.36,892.83c3.66,0,6.49-.83,8.46-2.5,1.98-1.67,2.97-4.08,2.97-7.23s-.99-5.42-2.97-7.04c-1.98-1.61-4.8-2.42-8.46-2.42h-10.55v19.18h10.55Z"/>
        <path class="cls-4" d="M822.09,908.66l-8.3-12.53c-1.17.07-2.07.11-2.69.11h-10.55v12.42h-3.79v-38.42h14.34c4.8,0,8.51,1.11,11.13,3.33,2.62,2.22,3.93,5.36,3.93,9.43,0,3.19-.77,5.84-2.31,7.97-1.54,2.12-3.74,3.61-6.6,4.45l9.23,13.25h-4.4ZM811.1,892.83c3.66,0,6.49-.83,8.46-2.5,1.98-1.67,2.97-4.08,2.97-7.23s-.99-5.42-2.97-7.04-4.8-2.42-8.46-2.42h-10.55v19.18h10.55Z"/>
        <path class="cls-4" d="M836.49,870.24h25.72v3.41h-21.93v13.74h19.62v3.41h-19.62v14.46h22.64v3.41h-26.44v-38.42Z"/>
        <path class="cls-4" d="M894.81,874.52c-2.02-.84-4.1-1.26-6.27-1.26-2.97,0-5.69.71-8.16,2.14-2.47,1.43-4.43,3.38-5.88,5.85-1.45,2.47-2.17,5.18-2.17,8.11s.72,5.62,2.17,8.08c1.45,2.45,3.41,4.41,5.88,5.85,2.47,1.45,5.19,2.17,8.16,2.17,2.12,0,4.2-.41,6.21-1.24,2.01-.82,3.81-1.97,5.39-3.43l2.31,2.47c-1.91,1.76-4.09,3.15-6.54,4.18-2.46,1.03-4.97,1.54-7.53,1.54-3.63,0-6.96-.88-10-2.64-3.04-1.76-5.45-4.14-7.23-7.14-1.78-3-2.67-6.28-2.67-9.84s.9-6.82,2.69-9.78c1.79-2.97,4.22-5.32,7.28-7.06,3.06-1.74,6.4-2.61,10.03-2.61,2.6,0,5.11.49,7.53,1.46,2.42.97,4.54,2.32,6.38,4.04l-2.25,2.64c-1.54-1.5-3.32-2.67-5.33-3.52Z"/>
        <path class="cls-4" d="M932.34,874.52c-2.02-.84-4.1-1.26-6.27-1.26-2.97,0-5.69.71-8.16,2.14-2.47,1.43-4.43,3.38-5.88,5.85-1.45,2.47-2.17,5.18-2.17,8.11s.72,5.62,2.17,8.08c1.45,2.45,3.41,4.41,5.88,5.85,2.47,1.45,5.19,2.17,8.16,2.17,2.12,0,4.2-.41,6.21-1.24,2.01-.82,3.81-1.97,5.39-3.43l2.31,2.47c-1.91,1.76-4.09,3.15-6.54,4.18-2.46,1.03-4.97,1.54-7.53,1.54-3.63,0-6.96-.88-10-2.64-3.04-1.76-5.45-4.14-7.23-7.14-1.78-3-2.66-6.28-2.66-9.84s.9-6.82,2.69-9.78c1.79-2.97,4.22-5.32,7.28-7.06,3.06-1.74,6.4-2.61,10.03-2.61,2.6,0,5.11.49,7.53,1.46,2.42.97,4.54,2.32,6.38,4.04l-2.25,2.64c-1.54-1.5-3.32-2.67-5.33-3.52Z"/>
        <path class="cls-4" d="M948.28,870.24h3.79v38.42h-3.79v-38.42Z"/>
        <path class="cls-4" d="M990.58,872.52c3.06,1.74,5.49,4.09,7.28,7.06,1.79,2.97,2.69,6.23,2.69,9.78s-.9,6.83-2.69,9.84c-1.8,3-4.22,5.39-7.28,7.14-3.06,1.76-6.42,2.64-10.09,2.64s-7.03-.88-10.08-2.64c-3.06-1.76-5.49-4.14-7.28-7.14-1.8-3-2.69-6.28-2.69-9.84s.9-6.82,2.69-9.78c1.79-2.97,4.22-5.32,7.28-7.06,3.06-1.74,6.42-2.61,10.08-2.61s7.03.87,10.09,2.61ZM972.41,875.46c-2.49,1.43-4.47,3.37-5.94,5.83-1.47,2.46-2.2,5.15-2.2,8.08s.73,5.64,2.2,8.13c1.46,2.49,3.44,4.46,5.94,5.91,2.49,1.45,5.2,2.17,8.13,2.17s5.58-.72,8.05-2.17c2.47-1.45,4.44-3.42,5.91-5.91,1.46-2.49,2.2-5.2,2.2-8.13s-.73-5.62-2.2-8.08c-1.47-2.45-3.44-4.4-5.91-5.83-2.47-1.43-5.16-2.14-8.05-2.14s-5.64.71-8.13,2.14ZM984.56,859.35l3.79,1.65-6.92,5.5-3.3-.38,6.43-6.76Z"/>
        <path class="cls-4" d="M1036.77,870.24h3.74v38.42h-4.01l-23.8-32.54v32.54h-3.79v-38.42h4.01l23.85,32.54v-32.54Z"/>
        <path class="cls-3" d="M372.32,888.95c0-7.06-5.72-12.78-12.78-12.78s-12.78,5.72-12.78,12.78,5.72,12.78,12.78,12.78,12.78-5.72,12.78-12.78Z"/>
        <path class="cls-3" d="M658.41,888.95c0-7.06-5.72-12.78-12.78-12.78s-12.78,5.72-12.78,12.78,5.72,12.78,12.78,12.78,12.78-5.72,12.78-12.78Z"/>
        <path class="cls-3" d="M71.86,832.61H0v-89.82h70.06v21.3H25.02v12.83h42.47v20.66H25.02v13.6h46.83v21.43Z"/>
        <path class="cls-3" d="M162.06,767.69c-3.08-2.31-6.37-3.91-9.88-4.81-3.51-.9-7.23-1.35-11.16-1.35-1.54,0-3.04.13-4.49.38-1.46.26-2.76.64-3.91,1.15-1.15.51-2.08,1.2-2.76,2.05-.69.86-1.03,1.88-1.03,3.08,0,1.54.36,2.78,1.09,3.72.73.94,1.73,1.69,3.02,2.25,1.28.56,2.84.96,4.68,1.22,1.84.26,3.87.51,6.1.77,4.45.51,8.85,1.37,13.21,2.57,4.36,1.2,8.25,2.95,11.68,5.26,3.42,2.31,6.2,5.26,8.34,8.85,2.14,3.59,3.21,7.96,3.21,13.09s-1.11,9.54-3.34,13.22c-2.22,3.68-5.15,6.69-8.79,9.05-3.64,2.35-7.83,4.11-12.57,5.26-4.75,1.16-9.65,1.73-14.69,1.73-4.02,0-7.81-.19-11.36-.58-3.55-.39-6.93-1.16-10.14-2.31-3.21-1.16-6.35-2.78-9.43-4.88-3.08-2.1-6.16-4.77-9.24-8.02l13.99-16.04c2.22,2.14,4.49,3.87,6.8,5.2,2.31,1.33,4.6,2.35,6.86,3.08,2.27.73,4.47,1.22,6.61,1.48,2.14.26,4.15.39,6.03.39,4.19,0,7.59-.71,10.2-2.12,2.61-1.41,3.91-3.36,3.91-5.84,0-4.53-5-7.27-15.01-8.21-4.88-.43-9.54-1.15-13.99-2.18-4.45-1.03-8.34-2.59-11.68-4.68-3.34-2.1-5.99-4.94-7.96-8.53-1.97-3.59-2.95-8.17-2.95-13.73,0-4.7,1.07-8.79,3.21-12.25,2.14-3.46,4.96-6.29,8.47-8.47,3.51-2.18,7.51-3.8,12-4.88,4.49-1.07,9.13-1.6,13.92-1.6,6.76,0,12.83.81,18.22,2.44,5.39,1.63,10.52,4.36,15.4,8.21l-12.58,16.04Z"/>
        <path class="cls-3" d="M230.83,763.71h-26.18v-20.91h77.76v20.91h-26.3v68.9h-25.28v-68.9Z"/>
        <path class="cls-3" d="M397.38,742.92v50.17c0,6.67-.96,12.58-2.89,17.71-1.92,5.13-4.73,9.45-8.41,12.96-3.68,3.51-8.13,6.18-13.34,8.02-5.22,1.84-11.12,2.76-17.71,2.76s-12.49-.88-17.71-2.63c-5.22-1.75-9.67-4.38-13.34-7.89-3.68-3.51-6.48-7.87-8.41-13.09-1.92-5.22-2.89-11.25-2.89-18.09v-49.91h25.28v49.91c0,7.1,1.56,12.21,4.68,15.33,3.12,3.12,7.25,4.68,12.38,4.68s9.26-1.58,12.38-4.75c3.12-3.16,4.68-8.17,4.68-15.01v-50.17h25.28Z"/>
        <path class="cls-3" d="M473.34,742.8c7.96,0,14.86,1.15,20.72,3.46,5.86,2.31,10.73,5.45,14.63,9.43,3.89,3.98,6.8,8.66,8.72,14.05,1.92,5.39,2.89,11.16,2.89,17.32s-.94,12-2.82,17.51c-1.88,5.52-4.75,10.35-8.6,14.5-3.85,4.15-8.72,7.44-14.63,9.88-5.9,2.44-12.87,3.66-20.92,3.66h-38.49v-89.82h38.49ZM460,811.19h13.34c4.02,0,7.42-.68,10.2-2.05,2.78-1.37,5.03-3.21,6.74-5.52,1.71-2.31,2.95-4.92,3.72-7.83.77-2.91,1.16-5.9,1.16-8.98s-.41-6.01-1.22-8.79c-.81-2.78-2.1-5.2-3.85-7.25-1.75-2.05-4.02-3.7-6.8-4.94-2.78-1.24-6.1-1.86-9.94-1.86h-13.34v47.22Z"/>
        <path class="cls-3" d="M554.31,832.61v-89.82h25.28v89.82h-25.28Z"/>
        <path class="cls-3" d="M713.16,787.7c0,7.53-1.22,14.2-3.66,20.02-2.44,5.82-5.86,10.74-10.26,14.76-4.41,4.02-9.67,7.08-15.78,9.17-6.12,2.09-12.85,3.14-20.21,3.14s-14.09-1.05-20.21-3.14c-6.12-2.1-11.38-5.15-15.78-9.17-4.41-4.02-7.83-8.94-10.27-14.76-2.44-5.82-3.66-12.49-3.66-20.02s1.22-13.94,3.66-19.76c2.44-5.82,5.86-10.76,10.27-14.82,4.4-4.06,9.66-7.16,15.78-9.3,6.11-2.14,12.85-3.21,20.21-3.21s14.09,1.05,20.21,3.14c6.12,2.1,11.38,5.15,15.78,9.17,4.4,4.02,7.83,8.96,10.26,14.82,2.44,5.86,3.66,12.51,3.66,19.95ZM687.75,787.7c0-7.78-2.2-13.96-6.61-18.54-4.41-4.58-10.37-6.87-17.9-6.87-3.59,0-6.91.62-9.94,1.86-3.04,1.24-5.63,3-7.76,5.26-2.14,2.27-3.81,4.96-5,8.08-1.2,3.12-1.8,6.52-1.8,10.2s.6,7.21,1.8,10.33c1.2,3.12,2.89,5.8,5.07,8.02,2.18,2.23,4.77,3.96,7.76,5.2,2.99,1.24,6.29,1.86,9.88,1.86s7.04-.62,10.07-1.86c3.04-1.24,5.62-2.99,7.76-5.26,2.14-2.27,3.79-4.94,4.94-8.02,1.16-3.08,1.73-6.5,1.73-10.26Z"/>
        <path class="cls-4" d="M830.05,832.61h-27.97l-20.91-29.13h-8.85v29.13h-25.41v-89.82h43.88c5.73,0,10.78.86,15.14,2.57,4.36,1.71,8,4,10.91,6.87,2.91,2.87,5.11,6.16,6.61,9.88,1.5,3.72,2.25,7.59,2.25,11.61,0,2.74-.28,5.39-.83,7.96-.56,2.57-1.54,4.98-2.95,7.25-1.41,2.27-3.36,4.41-5.84,6.42-2.48,2.01-5.6,3.83-9.37,5.45l23.35,30.28v1.54ZM772.31,763.07v21.56h18.73c3.34,0,5.77-1.05,7.31-3.14,1.54-2.09,2.31-4.51,2.31-7.25s-.81-5.39-2.44-7.7c-1.63-2.31-4.11-3.46-7.44-3.46h-18.48Z"/>
        <path class="cls-4" d="M933.85,832.61h-71.85v-89.82h70.06v21.3h-45.04v12.83h42.47v20.66h-42.47v13.6h46.83v21.43Z"/>
        <path class="cls-4" d="M1049.08,820.94c-5.13,5.05-10.71,8.64-16.74,10.78-6.03,2.14-12.47,3.21-19.31,3.21-8.81,0-16.32-1.28-22.52-3.85-6.2-2.57-11.27-5.99-15.21-10.26-3.94-4.28-6.82-9.24-8.66-14.88-1.84-5.65-2.76-11.5-2.76-17.58,0-5.73.96-11.44,2.89-17.13,1.92-5.69,4.92-10.8,8.98-15.33,4.06-4.53,9.17-8.19,15.33-10.97,6.16-2.78,13.47-4.17,21.94-4.17,6.5,0,12.64,1.16,18.41,3.46,5.77,2.31,11.23,5.95,16.36,10.91l-15.65,15.4c-3.25-3.08-6.5-5.15-9.75-6.22-3.25-1.07-6.37-1.6-9.37-1.6-4.36,0-8.06.79-11.1,2.37-3.04,1.58-5.52,3.64-7.44,6.16-1.92,2.52-3.32,5.3-4.17,8.34-.86,3.04-1.28,6.01-1.28,8.92s.43,5.84,1.28,8.79c.85,2.95,2.22,5.63,4.11,8.02,1.88,2.4,4.34,4.34,7.38,5.84,3.04,1.5,6.78,2.25,11.23,2.25,1.54,0,3.21-.17,5-.51,1.8-.34,3.61-.88,5.45-1.6,1.84-.73,3.68-1.67,5.52-2.82,1.84-1.16,3.57-2.55,5.2-4.17l14.88,16.68Z"/>
      </g>
    </g>
  </g>
</svg>