<?xml version="1.0" encoding="UTF-8"?>
<svg id="Capa_2" data-name="Capa 2" xmlns="http://www.w3.org/2000/svg" viewBox="0 0 685.38 61.53">
  <defs>
    <style>
      .cls-1 {
        fill: #e20034;
      }

      .cls-1, .cls-2 {
        stroke-width: 0px;
      }

      .cls-2 {
        fill: #fcfdf8;
      }
    </style>
  </defs>
  <g id="Capa_7" data-name="Capa 7">
    <g>
      <path class="cls-1" d="M309.24,1.43c5.2,0,9.71.75,13.54,2.26,3.83,1.51,7.01,3.56,9.56,6.16,2.54,2.6,4.44,5.66,5.7,9.18,1.26,3.52,1.89,7.29,1.89,11.32s-.62,7.84-1.84,11.44c-1.23,3.6-3.1,6.76-5.62,9.47-2.52,2.71-5.7,4.86-9.56,6.46-3.86,1.59-8.41,2.39-13.66,2.39h-25.15V1.43h25.15ZM300.52,46.11h8.72c2.63,0,4.85-.45,6.66-1.34,1.82-.89,3.28-2.1,4.4-3.6,1.12-1.51,1.93-3.21,2.43-5.11.5-1.9.75-3.86.75-5.87s-.27-3.93-.79-5.74c-.53-1.82-1.37-3.4-2.52-4.74-1.15-1.34-2.63-2.42-4.44-3.23-1.82-.81-3.98-1.22-6.5-1.22h-8.72v30.85Z"/>
      <path class="cls-1" d="M362.14,60.11V1.43h16.51v58.68h-16.51Z"/>
      <path class="cls-1" d="M105.88,17.44c-2.01-1.51-4.16-2.56-6.45-3.14-2.29-.59-4.72-.88-7.29-.88-1.01,0-1.98.08-2.93.25-.95.17-1.8.42-2.56.75-.76.34-1.36.78-1.8,1.34-.45.56-.67,1.23-.67,2.01,0,1.01.24,1.82.71,2.43.47.62,1.13,1.1,1.97,1.47.84.36,1.86.63,3.06.8,1.2.17,2.53.33,3.98.5,2.91.34,5.79.89,8.63,1.68,2.85.78,5.39,1.93,7.63,3.44,2.23,1.51,4.05,3.44,5.45,5.78,1.39,2.35,2.1,5.2,2.1,8.55s-.73,6.23-2.18,8.63c-1.45,2.4-3.37,4.37-5.74,5.91-2.38,1.54-5.11,2.68-8.21,3.44-3.1.75-6.3,1.13-9.6,1.13-2.63,0-5.1-.12-7.42-.38-2.32-.25-4.53-.75-6.62-1.51-2.1-.75-4.15-1.82-6.16-3.19-2.01-1.37-4.02-3.11-6.04-5.24l9.14-10.48c1.45,1.4,2.94,2.53,4.44,3.39,1.51.87,3,1.54,4.49,2.01,1.48.48,2.92.8,4.32.96,1.4.17,2.71.25,3.94.25,2.74,0,4.96-.46,6.66-1.38,1.71-.92,2.56-2.19,2.56-3.81,0-2.96-3.27-4.75-9.81-5.37-3.19-.28-6.23-.75-9.14-1.42-2.91-.67-5.45-1.69-7.63-3.06-2.18-1.37-3.91-3.23-5.2-5.58-1.29-2.35-1.93-5.34-1.93-8.97,0-3.07.7-5.74,2.1-8,1.39-2.26,3.24-4.11,5.53-5.53,2.29-1.42,4.9-2.49,7.84-3.19C85.96.35,89,0,92.13,0,96.54,0,100.51.53,104.03,1.59c3.52,1.06,6.88,2.85,10.06,5.36l-8.21,10.48Z"/>
      <path class="cls-1" d="M465.92,30.77c0,4.92-.8,9.28-2.39,13.08-1.59,3.8-3.83,7.01-6.71,9.64-2.88,2.63-6.32,4.62-10.31,5.99-3.99,1.37-8.39,2.05-13.2,2.05s-9.21-.69-13.2-2.05c-3.99-1.37-7.43-3.37-10.31-5.99-2.88-2.63-5.12-5.84-6.71-9.64-1.59-3.8-2.39-8.16-2.39-13.08s.8-9.11,2.39-12.91c1.59-3.8,3.83-7.03,6.71-9.68,2.88-2.65,6.31-4.68,10.31-6.08,4-1.4,8.4-2.1,13.2-2.1s9.21.69,13.2,2.05c4,1.37,7.43,3.37,10.31,5.99,2.88,2.63,5.11,5.86,6.71,9.68,1.59,3.83,2.39,8.17,2.39,13.04ZM449.32,30.77c0-5.08-1.44-9.12-4.32-12.11-2.88-2.99-6.78-4.49-11.7-4.49-2.35,0-4.51.41-6.5,1.22-1.98.81-3.68,1.96-5.07,3.44-1.4,1.48-2.49,3.24-3.27,5.28-.78,2.04-1.17,4.26-1.17,6.66s.39,4.71,1.17,6.75c.78,2.04,1.89,3.79,3.31,5.24,1.43,1.45,3.12,2.59,5.07,3.4,1.95.81,4.11,1.22,6.45,1.22s4.6-.4,6.58-1.22c1.98-.81,3.67-1.96,5.07-3.44,1.4-1.48,2.47-3.23,3.23-5.24.75-2.01,1.13-4.25,1.13-6.71Z"/>
      <path class="cls-2" d="M542.29,60.11h-18.28l-13.66-19.03h-5.79v19.03h-16.6V1.43h28.67c3.74,0,7.04.56,9.89,1.68,2.85,1.12,5.23,2.61,7.12,4.49,1.9,1.87,3.34,4.02,4.32,6.46.98,2.43,1.47,4.96,1.47,7.59,0,1.79-.18,3.52-.54,5.2-.37,1.68-1.01,3.26-1.93,4.74-.92,1.48-2.2,2.88-3.81,4.19-1.62,1.31-3.66,2.5-6.12,3.56l15.26,19.78v1.01ZM504.56,14.67v14.08h12.24c2.18,0,3.77-.68,4.78-2.05,1.01-1.37,1.51-2.95,1.51-4.74s-.53-3.52-1.59-5.03c-1.06-1.51-2.68-2.26-4.86-2.26h-12.07Z"/>
      <path class="cls-2" d="M608.93,60.11h-46.94V1.43h45.77v13.92h-29.42v8.38h27.75v13.5h-27.75v8.89h30.6v14Z"/>
      <path class="cls-2" d="M685.38,52.39c-3.35,3.3-7,5.64-10.94,7.04-3.94,1.4-8.15,2.1-12.62,2.1-5.76,0-10.66-.84-14.71-2.52-4.05-1.68-7.36-3.91-9.94-6.71-2.57-2.79-4.46-6.04-5.66-9.72-1.2-3.69-1.8-7.52-1.8-11.49,0-3.74.63-7.47,1.89-11.19,1.26-3.72,3.21-7.05,5.87-10.02,2.65-2.96,5.99-5.35,10.02-7.17C651.52.91,656.29,0,661.82,0c4.25,0,8.26.75,12.03,2.26,3.77,1.51,7.33,3.89,10.69,7.13l-10.23,10.06c-2.12-2.01-4.25-3.37-6.37-4.07-2.12-.7-4.16-1.05-6.12-1.05-2.85,0-5.27.52-7.25,1.55-1.99,1.04-3.61,2.38-4.86,4.02-1.26,1.65-2.17,3.47-2.73,5.45-.56,1.98-.84,3.93-.84,5.83s.28,3.81.84,5.74c.56,1.93,1.45,3.68,2.68,5.24,1.23,1.57,2.84,2.84,4.82,3.81,1.98.98,4.43,1.47,7.33,1.47,1.01,0,2.1-.11,3.27-.33,1.17-.22,2.36-.57,3.56-1.05,1.2-.47,2.4-1.09,3.61-1.84,1.2-.75,2.33-1.66,3.39-2.73l9.72,10.9Z"/>
      <path class="cls-1" d="M46.94,60.11H0V1.43h45.77v13.92h-29.42v8.38h27.75v13.5h-27.75v8.89h30.6v14Z"/>
      <path class="cls-1" d="M150.81,15.09h-17.1V1.43h50.8v13.66h-17.19v45.02h-16.51V15.09Z"/>
      <path class="cls-1" d="M259.62.84v32.78c0,4.36-.63,8.21-1.88,11.57-1.26,3.35-3.09,6.18-5.49,8.47-2.4,2.29-5.31,4.04-8.72,5.24-3.41,1.2-7.27,1.8-11.57,1.8s-8.16-.57-11.57-1.72c-3.41-1.14-6.32-2.86-8.72-5.16-2.4-2.29-4.23-5.14-5.49-8.55-1.26-3.41-1.88-7.35-1.88-11.82V.84h16.51v32.61c0,4.64,1.02,7.98,3.06,10.02,2.04,2.04,4.74,3.06,8.09,3.06s6.05-1.03,8.09-3.1c2.04-2.07,3.06-5.34,3.06-9.81V.84h16.51Z"/>
    </g>
  </g>
</svg>